<svg t="1679904316122" class="icon" viewBox="0 0 1024 1024" version="1.1" xmlns="http://www.w3.org/2000/svg" p-id="977" width="200" height="200"><path d="M498.70250288 101.26889718l-150.24928996 84.63173405c-8.82357285 4.97102697-14.29170252 14.29170252-14.29170252 24.48230779v167.64788433c0 10.19060528 5.46812965 19.51128083 14.29170252 24.4823078L498.70250288 487.14486518c8.57502151 4.84675129 19.01417813 4.84675129 27.58919964 0l150.12501428-84.63173403c8.82357285-4.97102697 14.29170252-14.29170252 14.29170252-24.4823078V210.38293902c0-10.19060528-5.46812965-19.51128083-14.29170252-24.48230779l-150.12501428-84.63173405c-8.57502151-4.84675129-19.01417813-4.84675129-27.58919964 0z m-21.99679431-58.53384248c22.24534565-12.55184308 49.46171828-12.55184308 71.70706393 0l167.39933298 94.44951229c22.9909997 12.9246701 37.15842655 37.28270222 37.15842655 63.62914513V387.72432592c0 26.3464429-14.16742685 50.70447502-37.15842655 63.62914513l-167.39933298 94.4495123a72.98213236 72.98213236 0 0 1-71.70706393 0l-167.39933299-94.4495123c-22.9909997-12.9246701-37.15842655-37.28270222-37.15842655-63.62914513V200.68943645c0-26.3464429 14.16742685-50.70447502 37.15842655-63.62914513l167.39933299-94.32523662z m135.08765771 581.73443033c-8.69929718 4.84675129-14.04315117 14.04315117-14.04315117 23.9852051v164.54099248c0 9.94205392 5.34385398 19.13845381 14.04315117 23.98520509l147.39094945 83.14042595c8.45074583 4.72247562 18.64135111 4.72247562 27.09209695 0l147.39094945-83.14042595c8.69929718-4.84675129 14.04315117-14.04315117 14.04315117-23.98520509V648.45469013c0-9.94205392-5.34385398-19.13845381-14.04315117-23.9852051l-147.39094945-83.14042595c-8.45074583-4.72247562-18.64135111-4.72247562-27.09209695 0l-147.39094945 83.14042595z m196.85266774-145.27826298l167.39933297 94.4495123c22.9909997 12.9246701 37.15842655 37.28270222 37.15842656 63.62914512v186.91061381c0 26.3464429-14.16742685 50.70447502-37.15842656 63.62914512l-167.39933297 94.4495123a72.98213236 72.98213236 0 0 1-71.70706394 0l-167.52360866-94.4495123c-22.9909997-12.9246701-37.15842655-37.28270222-37.15842654-63.62914512V637.26987947c0-26.3464429 14.16742685-50.70447502 37.15842654-63.62914512l167.52360866-94.4495123c22.24534565-12.55184308 49.46171828-12.55184308 71.70706394 0zM237.3507603 539.96202667l-148.50943052 83.76180432c-8.69929718 4.97102697-14.16742685 14.16742685-14.16742685 24.23375644v165.78374922c0 10.0663296 5.34385398 19.26272948 14.16742685 24.23375645L237.3507603 921.61262175c8.45074583 4.72247562 18.76562678 4.72247562 27.34064829 0l148.50943052-83.76180433c8.69929718-4.97102697 14.16742685-14.16742685 14.16742684-24.23375644V647.83331177c0-10.0663296-5.46812965-19.26272948-14.16742684-24.23375645L264.69140859 539.83775099c-8.57502151-4.72247562-18.88990245-4.72247562-27.34064829 0.12427568z m-22.24534567-60.77080462c22.24534565-12.55184308 49.46171828-12.55184308 71.70706395 0l167.39933297 94.4495123c22.9909997 12.9246701 37.15842655 37.28270222 37.15842655 63.62914512v186.91061381c0 26.3464429-14.16742685 50.70447502-37.15842655 63.62914512l-167.39933297 94.4495123a72.98213236 72.98213236 0 0 1-71.70706395 0l-167.52360865-94.4495123c-22.9909997-12.9246701-37.15842655-37.28270222-37.15842655-63.62914512V637.26987947c0-26.3464429 14.16742685-50.70447502 37.15842655-63.62914512l167.52360865-94.4495123z" fill="#222a47" p-id="978"></path><path d="M636.1513984 255.86783573c10.19060528-4.84675129 22.36962133-0.74565405 27.58919965 9.32067556 5.09530263 10.0663296 1.36703242 22.36962133-8.57502152 27.83775099l-112.59376071 57.5396371c-14.91308089 7.70509179-32.56022661 7.70509179-47.59758317 0l-112.46948503-57.5396371c-10.31488095-5.21957831-14.29170252-17.89569707-9.07212421-28.08630233 5.21957831-10.31488095 17.89569707-14.29170252 28.08630234-9.07212422l112.46948503 57.66391277c2.98261618 1.49130809 6.58661072 1.49130809 9.56922691 0l112.59376071-57.66391277zM896.38465991 694.18813819c6.7108864-3.60399455 14.78880522-3.23116752 21.12686459 0.74565404 6.33805938 4.10109725 10.0663296 11.30908635 9.56922691 18.76562679-0.37282702 7.58081612-4.84675129 14.29170252-11.68191336 17.52287005L802.80507733 788.88620183c-14.91308089 7.70509179-32.56022661 7.70509179-47.59758316 0l-112.46948505-57.66391276c-10.31488095-5.21957831-14.29170252-17.77142139-9.0721242-28.08630235s17.89569707-14.29170252 28.08630233-9.0721242l112.46948505 57.66391277c2.98261618 1.49130809 6.46233505 1.49130809 9.44495122 0l112.71803639-57.5396371zM374.05400178 693.56675982c10.19060528-4.84675129 22.36962133-0.74565405 27.58919964 9.32067556 5.09530263 10.0663296 1.36703242 22.36962133-8.57502151 27.83775099l-112.59376071 57.5396371c-14.91308089 7.70509179-32.56022661 7.70509179-47.59758317 0L120.40735099 730.72518637c-10.31488095-5.21957831-14.29170252-17.89569707-9.07212421-28.08630234 5.21957831-10.31488095 17.77142139-14.29170252 28.08630234-9.07212421l112.46948505 57.66391277c2.98261618 1.49130809 6.58661072 1.49130809 9.5692269 0l112.59376071-57.66391277z" fill="#222a47" p-id="979"></path></svg>